<mxfile host="app.diagrams.net" modified="2024-01-29T08:12:21.391Z" agent="Mozilla/5.0 (Windows NT 10.0; Win64; x64) AppleWebKit/537.36 (KHTML, like Gecko) Chrome/121.0.0.0 Safari/537.36" etag="Z4LsJpVYrW7GMeVg0z5y" version="23.0.2" type="github">
  <diagram name="Page-1" id="-_thKESEbLb73HqjySur">
    <mxGraphModel dx="880" dy="478" grid="1" gridSize="10" guides="1" tooltips="1" connect="1" arrows="1" fold="1" page="1" pageScale="1" pageWidth="850" pageHeight="1100" math="0" shadow="0">
      <root>
        <mxCell id="0" />
        <mxCell id="1" parent="0" />
        <mxCell id="uOqtzAvK9Y0CFjzYPPIo-1" value="" style="rounded=1;whiteSpace=wrap;html=1;" vertex="1" parent="1">
          <mxGeometry y="200" width="120" height="60" as="geometry" />
        </mxCell>
        <mxCell id="uOqtzAvK9Y0CFjzYPPIo-2" value="mengisi form" style="rounded=1;whiteSpace=wrap;html=1;" vertex="1" parent="1">
          <mxGeometry x="300" y="200" width="120" height="60" as="geometry" />
        </mxCell>
        <mxCell id="uOqtzAvK9Y0CFjzYPPIo-4" value="pengunjung perpus" style="rounded=1;whiteSpace=wrap;html=1;" vertex="1" parent="1">
          <mxGeometry x="150" y="200" width="120" height="60" as="geometry" />
        </mxCell>
        <mxCell id="uOqtzAvK9Y0CFjzYPPIo-5" value="form Kunjungan" style="rounded=1;whiteSpace=wrap;html=1;" vertex="1" parent="1">
          <mxGeometry x="420" y="120" width="120" height="60" as="geometry" />
        </mxCell>
        <mxCell id="uOqtzAvK9Y0CFjzYPPIo-6" value="&amp;nbsp;form pencarian buku" style="rounded=1;whiteSpace=wrap;html=1;" vertex="1" parent="1">
          <mxGeometry x="420" y="280" width="120" height="60" as="geometry" />
        </mxCell>
        <mxCell id="uOqtzAvK9Y0CFjzYPPIo-7" value="masukan judul buku" style="rounded=1;whiteSpace=wrap;html=1;" vertex="1" parent="1">
          <mxGeometry x="570" y="350" width="120" height="60" as="geometry" />
        </mxCell>
        <mxCell id="uOqtzAvK9Y0CFjzYPPIo-8" value="hasil pencarian" style="rounded=1;whiteSpace=wrap;html=1;" vertex="1" parent="1">
          <mxGeometry x="720" y="350" width="120" height="60" as="geometry" />
        </mxCell>
        <mxCell id="uOqtzAvK9Y0CFjzYPPIo-9" value="" style="endArrow=classic;html=1;rounded=0;entryX=0;entryY=0.5;entryDx=0;entryDy=0;exitX=1;exitY=0.5;exitDx=0;exitDy=0;" edge="1" parent="1" source="uOqtzAvK9Y0CFjzYPPIo-1" target="uOqtzAvK9Y0CFjzYPPIo-4">
          <mxGeometry width="50" height="50" relative="1" as="geometry">
            <mxPoint x="140" y="230" as="sourcePoint" />
            <mxPoint x="190" y="180" as="targetPoint" />
          </mxGeometry>
        </mxCell>
        <mxCell id="uOqtzAvK9Y0CFjzYPPIo-10" value="" style="endArrow=classic;html=1;rounded=0;entryX=0;entryY=0.5;entryDx=0;entryDy=0;" edge="1" parent="1" source="uOqtzAvK9Y0CFjzYPPIo-4" target="uOqtzAvK9Y0CFjzYPPIo-2">
          <mxGeometry width="50" height="50" relative="1" as="geometry">
            <mxPoint x="310" y="230" as="sourcePoint" />
            <mxPoint x="360" y="180" as="targetPoint" />
          </mxGeometry>
        </mxCell>
        <mxCell id="uOqtzAvK9Y0CFjzYPPIo-17" value="Daftar Kunjungan" style="rounded=1;whiteSpace=wrap;html=1;" vertex="1" parent="1">
          <mxGeometry x="640" y="120" width="120" height="60" as="geometry" />
        </mxCell>
        <mxCell id="uOqtzAvK9Y0CFjzYPPIo-18" value="" style="endArrow=classic;html=1;rounded=0;entryX=-0.017;entryY=0.617;entryDx=0;entryDy=0;entryPerimeter=0;exitX=1.017;exitY=0.65;exitDx=0;exitDy=0;exitPerimeter=0;" edge="1" parent="1" source="uOqtzAvK9Y0CFjzYPPIo-5" target="uOqtzAvK9Y0CFjzYPPIo-17">
          <mxGeometry width="50" height="50" relative="1" as="geometry">
            <mxPoint x="640" y="160" as="sourcePoint" />
            <mxPoint x="690" y="110" as="targetPoint" />
          </mxGeometry>
        </mxCell>
        <mxCell id="uOqtzAvK9Y0CFjzYPPIo-19" value="selesai" style="rounded=1;whiteSpace=wrap;html=1;" vertex="1" parent="1">
          <mxGeometry x="730" y="210" width="120" height="60" as="geometry" />
        </mxCell>
        <mxCell id="uOqtzAvK9Y0CFjzYPPIo-24" value="" style="endArrow=none;html=1;rounded=0;exitX=1;exitY=0.5;exitDx=0;exitDy=0;" edge="1" parent="1" source="uOqtzAvK9Y0CFjzYPPIo-2">
          <mxGeometry width="50" height="50" relative="1" as="geometry">
            <mxPoint x="620" y="280" as="sourcePoint" />
            <mxPoint x="480" y="230" as="targetPoint" />
          </mxGeometry>
        </mxCell>
        <mxCell id="uOqtzAvK9Y0CFjzYPPIo-25" value="" style="endArrow=classic;startArrow=classic;html=1;rounded=0;entryX=0.5;entryY=1;entryDx=0;entryDy=0;exitX=0.5;exitY=0;exitDx=0;exitDy=0;" edge="1" parent="1" source="uOqtzAvK9Y0CFjzYPPIo-6" target="uOqtzAvK9Y0CFjzYPPIo-5">
          <mxGeometry width="50" height="50" relative="1" as="geometry">
            <mxPoint x="620" y="280" as="sourcePoint" />
            <mxPoint x="670" y="230" as="targetPoint" />
          </mxGeometry>
        </mxCell>
        <mxCell id="uOqtzAvK9Y0CFjzYPPIo-28" value="" style="endArrow=none;html=1;rounded=0;exitX=1;exitY=0.5;exitDx=0;exitDy=0;" edge="1" parent="1" source="uOqtzAvK9Y0CFjzYPPIo-6">
          <mxGeometry width="50" height="50" relative="1" as="geometry">
            <mxPoint x="590" y="330" as="sourcePoint" />
            <mxPoint x="630" y="310" as="targetPoint" />
          </mxGeometry>
        </mxCell>
        <mxCell id="uOqtzAvK9Y0CFjzYPPIo-29" value="" style="endArrow=classic;html=1;rounded=0;entryX=0.5;entryY=0;entryDx=0;entryDy=0;" edge="1" parent="1" target="uOqtzAvK9Y0CFjzYPPIo-7">
          <mxGeometry width="50" height="50" relative="1" as="geometry">
            <mxPoint x="630" y="310" as="sourcePoint" />
            <mxPoint x="680" y="260" as="targetPoint" />
          </mxGeometry>
        </mxCell>
        <mxCell id="uOqtzAvK9Y0CFjzYPPIo-30" value="" style="endArrow=classic;html=1;rounded=0;exitX=1;exitY=0.5;exitDx=0;exitDy=0;entryX=0;entryY=0.5;entryDx=0;entryDy=0;" edge="1" parent="1" source="uOqtzAvK9Y0CFjzYPPIo-7" target="uOqtzAvK9Y0CFjzYPPIo-8">
          <mxGeometry width="50" height="50" relative="1" as="geometry">
            <mxPoint x="670" y="500" as="sourcePoint" />
            <mxPoint x="720" y="450" as="targetPoint" />
          </mxGeometry>
        </mxCell>
        <mxCell id="uOqtzAvK9Y0CFjzYPPIo-31" value="" style="endArrow=classic;html=1;rounded=0;exitX=0.5;exitY=0;exitDx=0;exitDy=0;" edge="1" parent="1" source="uOqtzAvK9Y0CFjzYPPIo-8">
          <mxGeometry width="50" height="50" relative="1" as="geometry">
            <mxPoint x="770" y="330" as="sourcePoint" />
            <mxPoint x="780" y="270" as="targetPoint" />
          </mxGeometry>
        </mxCell>
        <mxCell id="uOqtzAvK9Y0CFjzYPPIo-32" value="User" style="shape=umlActor;verticalLabelPosition=bottom;verticalAlign=top;html=1;outlineConnect=0;" vertex="1" parent="1">
          <mxGeometry x="50" y="210" width="10" height="20" as="geometry" />
        </mxCell>
        <mxCell id="uOqtzAvK9Y0CFjzYPPIo-41" value="" style="endArrow=classic;html=1;rounded=0;entryX=0.633;entryY=-0.017;entryDx=0;entryDy=0;entryPerimeter=0;exitX=0.5;exitY=1;exitDx=0;exitDy=0;" edge="1" parent="1" source="uOqtzAvK9Y0CFjzYPPIo-17" target="uOqtzAvK9Y0CFjzYPPIo-6">
          <mxGeometry width="50" height="50" relative="1" as="geometry">
            <mxPoint x="610" y="250" as="sourcePoint" />
            <mxPoint x="660" y="200" as="targetPoint" />
            <Array as="points">
              <mxPoint x="700" y="230" />
              <mxPoint x="496" y="230" />
            </Array>
          </mxGeometry>
        </mxCell>
      </root>
    </mxGraphModel>
  </diagram>
</mxfile>
